<svg width="29" height="48" viewBox="0 0 29 48" fill="none" xmlns="http://www.w3.org/2000/svg">
<rect x="0.5" y="0.5" width="28" height="47" rx="14" stroke="#FF2F00"/>
<path d="M14 13.3333C12.5272 13.3333 11.3333 14.5272 11.3333 16C11.3333 17.4728 12.5272 18.6667 14 18.6667C15.4728 18.6667 16.6667 17.4728 16.6667 16C16.6667 14.5272 15.4728 13.3333 14 13.3333ZM13.6464 32.3536C13.8417 32.5488 14.1583 32.5488 14.3536 32.3536L17.5355 29.1716C17.7308 28.9763 17.7308 28.6597 17.5355 28.4645C17.3403 28.2692 17.0237 28.2692 16.8284 28.4645L14 31.2929L11.1716 28.4645C10.9763 28.2692 10.6597 28.2692 10.4645 28.4645C10.2692 28.6597 10.2692 28.9763 10.4645 29.1716L13.6464 32.3536ZM14 16H13.5L13.5 32H14H14.5L14.5 16H14Z" fill="#FF2F00"/>
</svg>
